<svg width="28" height="28" viewBox="0 0 28 28" fill="none" xmlns="http://www.w3.org/2000/svg">
<rect width="28" height="28" rx="8" fill="#E8E8EF"/>
<path opacity="0.8" d="M13.5842 13.6815L6.56218 17.2018C5.92377 17.5221 5.92377 18.3948 6.56218 18.7146L13.5842 22.2354C13.8445 22.3659 14.1556 22.3659 14.4159 22.2354L21.4379 18.7146C22.0763 18.3944 22.0763 17.5217 21.4379 17.2018L14.4159 13.6811C14.1556 13.5506 13.8445 13.5506 13.5842 13.6815Z" fill="#7B819B"/>
<path d="M13.5867 9.54828L6.60667 13.2125C5.97209 13.5458 5.97209 14.4541 6.60667 14.787L13.5867 18.4516C13.8454 18.5875 14.1546 18.5875 14.4133 18.4516L21.3933 14.787C22.0279 14.4537 22.0279 13.5454 21.3933 13.2125L14.4133 9.54787C14.1546 9.41203 13.8454 9.41203 13.5867 9.54828Z" fill="url(#paint0_linear_3502_5019)"/>
<path opacity="0.8" d="M13.5867 5.76869L6.60667 9.43286C5.97209 9.76619 5.97209 10.6745 6.60667 11.0074L13.5867 14.672C13.8454 14.8079 14.1546 14.8079 14.4133 14.672L21.3933 11.0074C22.0279 10.6741 22.0279 9.76577 21.3933 9.43286L14.4133 5.76869C14.1546 5.63244 13.8454 5.63244 13.5867 5.76869Z" fill="url(#paint1_linear_3502_5019)"/>
<defs>
<linearGradient id="paint0_linear_3502_5019" x1="14" y1="9.44604" x2="14" y2="18.5535" gradientUnits="userSpaceOnUse">
<stop stop-color="#B0B3C3"/>
<stop offset="1" stop-color="#7B819B"/>
</linearGradient>
<linearGradient id="paint1_linear_3502_5019" x1="14" y1="5.6665" x2="14" y2="14.7739" gradientUnits="userSpaceOnUse">
<stop stop-color="#B0B3C3"/>
<stop offset="1" stop-color="#7B819B"/>
</linearGradient>
</defs>
</svg>
