<svg width="16" height="16" viewBox="0 0 16 16" fill="none" xmlns="http://www.w3.org/2000/svg">
<path fill-rule="evenodd" clip-rule="evenodd" d="M13.8333 13C13.8333 13.4592 13.46 13.8333 13 13.8333H11.3333V11.3333C11.3333 10.8733 10.9608 10.5 10.5 10.5H5.5C5.03917 10.5 4.66667 10.8733 4.66667 11.3333V13.8333H3C2.54 13.8333 2.16667 13.4592 2.16667 13V3C2.16667 2.54083 2.54 2.16667 3 2.16667H4.66667V6.33333C4.66667 6.79333 5.03917 7.16667 5.5 7.16667H8.83333C9.29417 7.16667 9.66667 6.79333 9.66667 6.33333C9.66667 5.87333 9.29417 5.5 8.83333 5.5H6.33333V2.16667H8.97667C9.19583 2.16667 9.41 2.25583 9.56583 2.41083L13.5892 6.43417C13.7467 6.59167 13.8333 6.80167 13.8333 7.02417V13ZM6.33333 13.8333H9.66667V12.1667H6.33333V13.8333ZM14.7675 5.25583L10.7442 1.2325C10.2725 0.76 9.64417 0.5 8.97667 0.5H3C1.62167 0.5 0.5 1.62167 0.5 3V13C0.5 14.3783 1.62167 15.5 3 15.5H5.5H10.5H13C14.3783 15.5 15.5 14.3783 15.5 13V7.02417C15.5 6.35583 15.2392 5.7275 14.7675 5.25583Z" fill="#53546E"/>
</svg>
