<svg width="28" height="28" viewBox="0 0 28 28" fill="none" xmlns="http://www.w3.org/2000/svg">
<path d="M0 14C0 8.38215 0 5.57323 1.34824 3.55544C1.93191 2.68192 2.68192 1.93191 3.55544 1.34824C5.57323 0 8.38215 0 14 0C19.6178 0 22.4268 0 24.4446 1.34824C25.3181 1.93191 26.0681 2.68192 26.6518 3.55544C28 5.57323 28 8.38215 28 14C28 19.6178 28 22.4268 26.6518 24.4446C26.0681 25.3181 25.3181 26.0681 24.4446 26.6518C22.4268 28 19.6178 28 14 28C8.38215 28 5.57323 28 3.55544 26.6518C2.68192 26.0681 1.93191 25.3181 1.34824 24.4446C0 22.4268 0 19.6178 0 14Z" fill="#FD7E14" fill-opacity="0.08"/>
<path d="M21.5 6.91671V21.0834C21.5 21.5438 21.1271 21.9167 20.6667 21.9167H18.5834V6.08337H20.6667C21.1271 6.08337 21.5 6.45629 21.5 6.91671Z" fill="#F5732A"/>
<path d="M20.6667 6.91671V21.0834C20.6667 21.5438 20.2938 21.9167 19.8334 21.9167H17.3334V6.08337H19.8334C20.2938 6.08337 20.6667 6.45629 20.6667 6.91671Z" fill="#F4F3F8"/>
<path d="M9.41663 6.91671V21.0834C9.41663 21.5438 9.78954 21.9167 10.25 21.9167H10.6666V6.08337H10.25C9.78954 6.08337 9.41663 6.45629 9.41663 6.91671Z" fill="url(#paint0_linear_3502_5891)"/>
<path d="M19 6.08337H10.6666V21.9167H19C19.4604 21.9167 19.8333 21.5438 19.8333 21.0834V6.91671C19.8333 6.45629 19.4604 6.08337 19 6.08337Z" fill="url(#paint1_linear_3502_5891)"/>
<path opacity="0.6" fill-rule="evenodd" clip-rule="evenodd" d="M6.5 21.0834V9.41671C6.5 8.95629 6.87292 8.58337 7.33333 8.58337H7.75H16.75C17.3025 8.58337 17.75 8.95629 17.75 9.41671V21.0834C17.75 21.5438 17.3025 21.9167 16.75 21.9167H7.75H7.33333C6.87292 21.9167 6.5 21.5438 6.5 21.0834Z" fill="url(#paint2_linear_3502_5891)"/>
<defs>
<linearGradient id="paint0_linear_3502_5891" x1="9.98481" y1="6.08337" x2="9.98481" y2="21.9167" gradientUnits="userSpaceOnUse">
<stop stop-color="#F85B03"/>
<stop offset="1" stop-color="#B24508"/>
<stop offset="1" stop-color="#B24508"/>
</linearGradient>
<linearGradient id="paint1_linear_3502_5891" x1="14.8333" y1="6.08337" x2="14.8333" y2="21.9167" gradientUnits="userSpaceOnUse">
<stop stop-color="#F85B03"/>
<stop offset="1" stop-color="#B24508"/>
<stop offset="1" stop-color="#DE560A"/>
</linearGradient>
<linearGradient id="paint2_linear_3502_5891" x1="11.9167" y1="8.58337" x2="8.78501" y2="21.1354" gradientUnits="userSpaceOnUse">
<stop stop-color="#FF9E68"/>
<stop offset="1" stop-color="#E2641D"/>
</linearGradient>
</defs>
</svg>
